<?xml version="1.0" standalone="no"?>
<!DOCTYPE svg PUBLIC "-//W3C//DTD SVG 20010904//EN"
 "http://www.w3.org/TR/2001/REC-SVG-20010904/DTD/svg10.dtd">
<svg version="1.0" xmlns="http://www.w3.org/2000/svg"
 width="2160.000000pt" height="2160.000000pt" viewBox="0 0 2160.000000 2160.000000"
 preserveAspectRatio="xMidYMid meet">
<metadata>
Created by potrace 1.14, written by Peter Selinger 2001-2017
</metadata>
<g transform="translate(0.000000,2160.000000) scale(0.100000,-0.100000)"
fill="#000000" stroke="none">
<path d="M6097 19623 c-4 -5 -31 -9 -62 -9 -30 1 -55 -3 -55 -8 0 -5 -7 -3
-15 4 -8 7 -15 8 -15 3 0 -6 -12 -9 -27 -9 -16 1 -36 -2 -45 -6 -9 -5 -20 -4
-23 2 -4 6 -17 4 -35 -5 -19 -10 -31 -11 -35 -5 -4 6 -11 8 -16 4 -11 -6 -83
-15 -141 -18 -21 0 -38 -4 -38 -7 0 -3 -6 -6 -12 -7 -7 -1 -29 -4 -48 -6 -19
-2 -48 -7 -64 -10 -16 -3 -50 -8 -75 -12 -25 -4 -52 -12 -60 -18 -12 -9 -13
-8 -6 4 7 12 6 13 -6 4 -8 -6 -26 -11 -41 -10 -14 1 -24 -3 -21 -8 3 -5 -5 -7
-20 -4 -15 3 -28 1 -30 -5 -1 -5 -19 -10 -40 -11 -20 0 -37 -4 -37 -8 0 -5 -3
-7 -7 -7 -22 4 -54 -2 -50 -8 3 -5 -5 -8 -16 -9 -35 -1 -72 -8 -77 -16 -3 -3
-19 -8 -35 -11 -17 -2 -37 -7 -46 -11 -9 -4 -20 -6 -25 -5 -5 1 -25 -5 -43
-13 -19 -9 -41 -14 -48 -11 -7 3 -13 0 -13 -6 0 -6 -11 -11 -24 -11 -14 0 -28
-5 -31 -11 -4 -6 -13 -8 -21 -5 -8 3 -14 2 -14 -2 0 -4 -10 -8 -22 -9 -11 -1
-24 -7 -28 -13 -4 -7 -10 -11 -14 -11 -3 1 -8 0 -11 0 -3 -1 -13 -2 -22 -3
-10 -1 -28 -7 -39 -14 -12 -6 -24 -8 -28 -5 -3 3 -6 0 -6 -7 0 -7 -3 -10 -6
-7 -4 3 -16 1 -28 -5 -11 -7 -25 -13 -31 -13 -12 -1 -99 -39 -138 -60 -15 -8
-26 -11 -23 -6 3 5 -19 -4 -48 -19 -30 -16 -57 -26 -60 -23 -3 4 -6 1 -6 -6 0
-8 -7 -11 -15 -7 -8 3 -15 1 -15 -4 0 -8 -33 -23 -53 -25 -4 0 -11 -6 -16 -13
-5 -8 -11 -13 -15 -12 -12 4 -66 -22 -66 -32 0 -5 -6 -8 -12 -6 -7 1 -23 -3
-35 -10 -13 -7 -23 -10 -23 -7 0 3 -9 -4 -20 -15 -12 -12 -25 -18 -30 -15 -6
4 -10 2 -10 -3 0 -6 -18 -17 -40 -26 -22 -9 -40 -20 -40 -26 0 -5 -3 -10 -7
-9 -16 2 -53 -14 -53 -23 0 -5 -4 -6 -10 -3 -5 3 -10 2 -10 -3 0 -5 -8 -13
-17 -16 -10 -3 -27 -12 -38 -19 -11 -7 -39 -23 -62 -36 -23 -13 -40 -28 -37
-33 3 -5 2 -8 -3 -7 -16 4 -63 -21 -63 -32 0 -7 -3 -10 -6 -6 -7 6 -123 -68
-136 -87 -4 -6 -8 -7 -8 -3 0 8 -13 -2 -51 -35 -10 -10 -23 -18 -29 -18 -5 0
-10 -4 -10 -10 0 -5 -7 -10 -15 -10 -8 0 -15 -4 -15 -10 0 -5 -7 -10 -16 -10
-9 0 -12 -5 -8 -12 5 -8 2 -9 -9 -5 -11 4 -17 1 -17 -8 0 -8 -9 -15 -21 -15
-11 0 -18 -3 -16 -7 3 -5 -1 -14 -9 -21 -8 -7 -14 -9 -14 -5 0 4 -16 -8 -35
-27 -19 -19 -35 -31 -35 -27 0 4 -18 -11 -40 -33 -22 -22 -43 -40 -47 -41 -5
0 -25 -16 -45 -35 -20 -19 -42 -34 -47 -34 -5 0 -13 -9 -16 -20 -4 -11 -15
-20 -26 -20 -11 0 -18 -4 -15 -8 3 -5 -11 -22 -31 -38 -47 -37 -336 -324 -326
-324 4 0 -8 -11 -27 -25 -19 -14 -30 -25 -24 -25 5 0 -3 -11 -18 -24 -16 -13
-28 -29 -28 -35 0 -7 -5 -9 -10 -6 -5 3 -10 -1 -10 -9 0 -8 -9 -20 -21 -26
-11 -7 -19 -14 -16 -16 2 -2 -18 -28 -44 -57 -27 -28 -49 -57 -49 -64 0 -7 -7
-13 -16 -13 -8 0 -12 -4 -9 -10 3 -5 1 -10 -5 -10 -6 0 -9 -4 -6 -9 3 -5 -1
-11 -9 -14 -8 -4 -31 -31 -51 -62 -20 -30 -41 -55 -45 -55 -5 0 -9 -7 -9 -15
0 -8 -5 -15 -12 -15 -6 0 -8 -3 -5 -7 4 -3 -2 -12 -13 -20 -11 -8 -20 -21 -20
-29 0 -8 -4 -14 -10 -14 -5 0 -10 -7 -10 -15 0 -8 -4 -15 -8 -15 -5 0 -17 -16
-28 -35 -10 -19 -22 -35 -27 -35 -4 0 -5 -4 -2 -10 3 -5 -1 -10 -9 -10 -9 0
-15 -3 -14 -7 4 -20 -23 -64 -34 -57 -7 4 -10 4 -6 -1 9 -10 -19 -65 -33 -65
-6 0 -7 -4 -4 -10 3 -5 1 -10 -4 -10 -6 0 -11 -4 -11 -9 0 -12 -62 -114 -75
-123 -5 -4 -6 -8 -1 -8 5 0 2 -8 -7 -18 -10 -10 -14 -22 -10 -25 3 -4 2 -7 -4
-7 -6 0 -16 -13 -22 -30 -5 -16 -15 -30 -20 -30 -6 0 -10 -3 -10 -7 3 -20 -3
-34 -24 -54 -12 -12 -16 -19 -9 -15 19 11 14 -8 -7 -23 -11 -8 -17 -20 -14
-28 3 -7 0 -13 -6 -13 -6 0 -8 -7 -4 -17 4 -11 3 -14 -5 -9 -7 4 -12 2 -12 -5
0 -7 -16 -43 -35 -80 -19 -36 -31 -69 -28 -73 4 -3 1 -6 -6 -6 -8 0 -11 -6 -7
-16 3 -8 2 -13 -3 -9 -5 3 -12 -8 -16 -25 -4 -16 -11 -30 -16 -30 -6 0 -7 -4
-4 -10 3 -5 1 -10 -5 -10 -6 0 -9 -4 -6 -8 3 -5 -1 -20 -9 -35 -7 -14 -11 -28
-7 -31 3 -3 0 -6 -7 -6 -7 0 -11 -6 -8 -14 3 -8 1 -16 -4 -18 -6 -2 -11 -11
-13 -20 -1 -10 -5 -21 -9 -24 -4 -4 -7 -16 -7 -26 0 -10 -5 -18 -11 -18 -6 0
-9 -7 -5 -15 3 -8 1 -15 -4 -15 -6 0 -9 -3 -8 -7 3 -17 -15 -63 -25 -63 -6 0
-8 -3 -4 -6 3 -4 0 -22 -8 -40 -8 -19 -12 -34 -9 -34 2 0 -2 -13 -11 -30 -9
-16 -12 -30 -8 -30 4 0 2 -5 -5 -12 -7 -7 -12 -18 -12 -26 0 -8 -7 -29 -16
-48 -9 -18 -14 -39 -12 -46 3 -7 -1 -19 -8 -26 -7 -7 -11 -19 -8 -27 4 -8 2
-15 -4 -15 -5 0 -9 -13 -8 -29 1 -17 -2 -28 -6 -25 -4 3 -8 -6 -8 -20 0 -14
-4 -26 -8 -26 -4 0 -9 -8 -10 -17 -1 -10 -3 -32 -5 -48 -2 -17 -7 -37 -11 -44
-5 -7 -10 -25 -12 -40 -1 -14 -7 -40 -12 -58 -6 -17 -8 -34 -4 -37 3 -3 1 -6
-4 -6 -6 0 -11 -11 -12 -25 -1 -14 -3 -36 -4 -50 -1 -14 -7 -25 -12 -25 -6 0
-4 -5 4 -10 12 -8 12 -10 1 -10 -8 0 -11 -7 -8 -20 3 -11 2 -20 -2 -20 -4 0
-8 -6 -8 -12 -1 -18 -12 -88 -18 -118 -3 -14 -8 -45 -11 -70 -9 -73 -12 -89
-20 -101 -5 -8 -3 -9 5 -4 10 6 11 3 2 -13 -6 -12 -11 -25 -10 -29 1 -4 1 -27
0 -51 -1 -32 -4 -41 -13 -36 -9 5 -9 2 1 -9 7 -9 10 -17 5 -17 -5 0 -9 -17 -8
-38 0 -20 -4 -42 -8 -49 -5 -7 -4 -14 3 -18 8 -6 7 -10 -2 -16 -11 -7 -11 -9
-1 -9 7 0 10 -5 6 -11 -4 -6 -8 -37 -9 -69 -1 -32 -6 -63 -10 -70 -6 -9 -4
-11 4 -5 10 6 11 3 2 -14 -7 -11 -8 -21 -3 -21 5 0 9 -7 9 -15 0 -8 -3 -15 -7
-15 -10 0 -6 -84 5 -92 6 -5 5 -8 -2 -8 -7 0 -13 -9 -13 -21 0 -13 4 -18 12
-13 7 5 8 3 2 -7 -14 -23 -15 -51 -2 -67 8 -9 8 -13 2 -9 -8 5 -12 -6 -12 -33
-1 -24 4 -40 11 -40 8 0 8 -3 -1 -9 -15 -9 -15 -17 0 -45 6 -11 6 -16 0 -12
-5 3 -9 -9 -8 -29 0 -19 4 -35 7 -35 7 0 5 -32 -4 -46 -3 -6 -3 -14 1 -18 3
-4 7 -26 8 -49 1 -23 3 -42 4 -42 1 0 4 -34 6 -75 2 -41 6 -93 9 -115 3 -22 7
-58 8 -81 2 -22 6 -45 9 -50 3 -5 5 -21 4 -36 -1 -16 2 -28 7 -28 4 0 6 -3 3
-8 -4 -7 14 -123 25 -154 0 -2 2 -12 3 -23 2 -11 7 -38 11 -60 4 -22 9 -49 10
-60 2 -11 4 -21 5 -22 2 -2 3 -11 5 -20 1 -10 4 -25 8 -33 6 -16 16 -58 24
-100 2 -14 8 -29 13 -34 5 -5 6 -15 3 -22 -3 -8 -1 -20 5 -27 5 -6 9 -24 8
-39 -1 -14 1 -25 5 -22 7 4 24 -63 21 -78 -1 -5 2 -8 8 -8 5 0 7 -7 4 -15 -4
-8 -1 -15 4 -15 6 0 9 -9 7 -20 -2 -11 3 -24 13 -30 12 -6 13 -9 3 -10 -9 0
-10 -4 -4 -12 6 -7 14 -26 18 -43 12 -44 12 -45 15 -50 1 -3 3 -8 5 -12 1 -5
7 -21 14 -37 6 -16 13 -37 14 -46 2 -10 8 -25 15 -33 7 -8 13 -26 14 -41 1
-14 6 -26 11 -26 5 0 7 -9 4 -20 -3 -11 -2 -20 2 -20 11 0 32 -50 26 -61 -4
-5 -1 -9 4 -9 6 0 11 -8 11 -17 0 -10 7 -27 15 -37 8 -10 12 -23 9 -27 -3 -5
0 -9 6 -9 6 0 9 -4 5 -9 -3 -5 -1 -12 5 -16 6 -4 8 -11 5 -16 -4 -5 -1 -9 4
-9 6 0 11 -4 11 -9 0 -5 5 -22 12 -38 6 -15 11 -31 10 -35 -1 -5 2 -8 8 -8 5
0 10 -9 10 -20 0 -11 5 -20 10 -20 6 0 10 -5 10 -12 0 -19 43 -108 52 -108 4
0 8 -9 8 -19 0 -11 5 -23 11 -26 6 -4 8 -13 6 -19 -3 -7 3 -19 13 -26 10 -7
16 -19 13 -27 -3 -7 0 -13 6 -13 6 0 11 -9 11 -20 0 -11 5 -20 11 -20 6 0 8
-7 5 -16 -3 -8 -2 -12 4 -9 5 3 12 -6 16 -20 3 -14 10 -25 16 -25 5 0 6 -4 3
-10 -3 -5 -1 -10 5 -10 6 0 9 -4 5 -9 -3 -6 5 -19 17 -30 12 -12 18 -21 14
-21 -5 0 -3 -7 4 -15 7 -8 9 -15 6 -15 -4 0 -1 -7 6 -15 29 -32 38 -45 33 -45
-4 0 3 -14 15 -30 12 -16 18 -30 15 -30 -4 0 0 -7 7 -15 31 -34 36 -43 31 -49
-4 -3 0 -6 7 -6 7 0 11 -3 8 -6 -6 -5 26 -60 51 -90 6 -7 7 -15 4 -18 -4 -3
-1 -6 5 -6 7 0 12 -7 12 -15 0 -8 5 -15 10 -15 6 0 10 -7 10 -15 0 -8 5 -15
10 -15 6 0 10 -6 10 -13 0 -7 13 -28 30 -47 16 -19 29 -43 30 -53 0 -10 4 -15
10 -12 5 3 10 1 10 -5 0 -6 25 -47 55 -91 31 -43 53 -79 50 -79 -3 0 5 -11 19
-23 14 -13 23 -27 19 -30 -3 -4 -2 -7 3 -7 5 0 20 -18 34 -40 14 -22 28 -40
32 -40 5 0 8 -7 8 -15 0 -9 7 -18 15 -21 8 -4 13 -9 10 -13 -2 -4 5 -14 16
-21 10 -8 19 -20 19 -28 0 -7 7 -15 15 -18 8 -4 12 -10 9 -15 -3 -5 2 -9 11
-9 9 0 13 -4 10 -10 -3 -5 -1 -10 4 -10 6 0 11 -6 11 -13 0 -7 8 -20 17 -29
30 -28 42 -46 36 -52 -4 -3 1 -6 11 -6 9 0 14 -5 11 -10 -3 -6 1 -13 9 -16 9
-3 16 -11 16 -18 0 -6 9 -18 20 -26 11 -8 20 -19 20 -24 0 -5 11 -19 26 -32
14 -13 21 -24 17 -24 -4 0 0 -5 10 -11 9 -6 15 -14 12 -19 -3 -5 4 -11 15 -15
11 -4 18 -11 15 -16 -4 -5 1 -12 9 -15 9 -3 16 -13 16 -21 0 -8 4 -11 10 -8 5
3 10 1 10 -5 0 -6 6 -17 13 -24 7 -8 29 -33 48 -56 18 -23 39 -48 46 -55 7 -7
9 -16 5 -20 -4 -5 -2 -5 4 -2 9 5 44 -25 44 -38 0 -2 16 -20 35 -40 20 -19 33
-35 30 -35 -3 0 17 -22 44 -50 27 -28 48 -50 45 -50 -2 0 11 -15 29 -34 17
-18 64 -68 102 -111 39 -42 85 -92 102 -110 18 -18 33 -39 33 -46 0 -7 3 -10
6 -7 6 7 119 -106 128 -127 3 -8 13 -15 22 -15 10 0 15 -3 12 -6 -4 -3 70 -81
162 -174 93 -92 165 -171 162 -175 -4 -4 -2 -5 5 -3 6 1 39 -25 72 -59 33 -35
65 -63 71 -63 6 0 9 -3 7 -7 -3 -5 1 -14 9 -21 8 -7 14 -11 14 -9 0 3 21 -16
47 -42 27 -25 47 -47 46 -49 0 -2 13 -17 30 -33 58 -53 107 -104 107 -111 0
-5 7 -8 16 -8 8 0 12 -4 9 -10 -3 -5 -2 -10 2 -10 5 0 18 -7 29 -16 10 -8 13
-12 5 -8 -9 5 -12 3 -7 -4 4 -7 14 -12 23 -12 9 0 14 -3 11 -6 -7 -6 39 -54
52 -54 5 0 12 -9 15 -20 3 -11 12 -20 20 -20 8 0 16 -8 19 -17 3 -10 19 -27
36 -38 16 -11 30 -26 30 -33 0 -7 4 -10 10 -7 6 3 10 -1 10 -10 0 -9 4 -14 9
-11 5 3 11 -4 14 -15 3 -12 9 -19 14 -16 4 3 14 -1 21 -9 7 -8 10 -14 7 -14
-2 0 10 -13 28 -30 58 -54 107 -105 107 -112 0 -5 6 -8 14 -8 8 0 17 -8 20
-17 3 -10 19 -27 36 -38 16 -11 30 -26 30 -33 0 -7 4 -10 10 -7 5 3 10 -1 10
-10 0 -9 4 -13 10 -10 6 3 10 2 10 -3 0 -13 69 -82 82 -82 5 0 7 -4 3 -9 -3
-5 3 -13 12 -16 10 -4 43 -35 73 -70 30 -35 61 -64 68 -64 7 -1 11 -5 7 -10
-3 -5 3 -12 12 -16 10 -3 34 -25 53 -49 19 -23 50 -54 67 -67 18 -13 35 -32
39 -42 3 -9 10 -15 15 -12 5 4 9 2 9 -3 0 -13 69 -82 82 -82 5 0 6 -4 3 -10
-3 -5 1 -10 10 -10 9 0 13 -4 10 -10 -3 -5 0 -10 7 -10 7 0 22 -14 33 -30 11
-17 28 -33 38 -36 9 -3 17 -11 17 -19 0 -8 9 -17 20 -20 11 -3 20 -10 20 -15
0 -13 48 -59 54 -52 3 3 6 -2 6 -12 0 -9 3 -15 8 -13 7 5 25 -10 33 -28 2 -5
7 -9 12 -7 4 1 7 -4 8 -10 0 -7 20 -29 44 -48 24 -19 47 -43 50 -53 4 -9 11
-15 16 -12 5 4 9 0 10 -7 0 -7 19 -29 42 -48 24 -19 44 -38 45 -42 1 -5 4 -8
7 -8 11 1 33 -25 28 -32 -2 -5 4 -8 13 -8 10 0 15 -3 12 -6 -8 -7 40 -54 54
-54 6 0 9 -3 6 -6 -4 -3 12 -22 35 -42 23 -20 43 -40 45 -44 4 -9 62 -69 62
-64 0 4 68 -65 130 -131 16 -18 30 -30 30 -28 0 3 6 0 14 -7 8 -7 12 -17 9
-21 -3 -5 4 -11 16 -14 11 -3 18 -9 15 -14 -3 -5 2 -9 11 -9 9 0 13 -4 10 -10
-3 -6 0 -10 7 -10 7 0 22 -14 33 -30 11 -17 28 -33 38 -36 9 -3 17 -11 17 -18
0 -7 11 -19 25 -26 13 -7 23 -16 22 -19 -1 -3 0 -6 3 -6 11 0 38 -30 33 -37
-2 -5 4 -8 13 -8 10 0 15 -3 12 -6 -5 -5 37 -54 47 -54 2 0 15 -11 29 -25 14
-14 23 -25 21 -25 -3 0 10 -13 28 -30 58 -54 107 -105 107 -112 0 -5 7 -8 16
-8 8 0 13 -4 10 -8 -3 -5 6 -15 19 -22 13 -7 22 -17 19 -22 -3 -4 3 -8 12 -8
10 0 15 -3 12 -6 -7 -6 39 -54 52 -54 5 0 12 -9 15 -20 3 -11 12 -20 20 -20 8
0 16 -8 19 -17 3 -10 19 -27 36 -38 16 -11 30 -26 30 -33 0 -7 4 -10 10 -7 5
3 10 -1 10 -10 0 -9 4 -14 9 -11 5 3 11 -4 14 -15 3 -12 10 -19 14 -16 5 3 18
-8 28 -24 11 -16 26 -29 33 -29 7 0 11 -4 7 -9 -3 -5 3 -12 12 -16 10 -3 34
-26 53 -50 19 -24 40 -44 47 -44 6 -1 14 -9 17 -18 3 -10 19 -27 36 -38 16
-11 30 -26 30 -33 0 -7 4 -10 10 -7 5 3 10 -1 10 -10 0 -9 4 -13 10 -10 5 3
10 2 10 -3 0 -13 69 -82 82 -82 5 0 7 -4 3 -9 -3 -5 3 -13 12 -16 10 -4 43
-35 73 -70 30 -35 61 -64 68 -64 7 -1 11 -5 7 -10 -3 -5 3 -12 12 -16 10 -3
34 -26 53 -50 19 -24 41 -44 47 -44 7 -1 12 -5 10 -10 -1 -5 3 -10 8 -12 16
-5 33 -23 28 -31 -2 -5 4 -8 13 -8 10 0 15 -3 12 -6 -5 -5 37 -54 47 -54 2 0
15 -11 29 -25 14 -14 23 -25 21 -25 -3 0 10 -13 28 -30 58 -54 107 -105 107
-112 0 -5 7 -8 16 -8 8 0 13 -4 9 -9 -3 -5 4 -12 15 -16 11 -3 20 -13 20 -21
0 -8 7 -14 17 -14 9 0 14 -3 11 -6 -7 -6 39 -54 52 -54 5 0 12 -9 15 -20 3
-11 12 -20 20 -20 8 0 16 -8 19 -17 3 -10 19 -27 36 -38 16 -11 30 -26 30 -33
0 -7 5 -10 10 -7 6 3 10 -1 10 -10 0 -9 4 -14 9 -11 5 3 11 -4 14 -15 3 -12
10 -19 14 -16 5 3 18 -8 28 -24 11 -16 26 -29 33 -29 7 0 11 -4 7 -9 -3 -5 3
-12 12 -16 10 -3 34 -26 53 -50 19 -24 40 -44 47 -44 6 -1 14 -9 17 -18 3 -10
19 -27 36 -38 16 -11 30 -26 30 -33 0 -7 5 -10 10 -7 5 3 10 -1 10 -10 0 -9 4
-13 10 -10 5 3 10 2 10 -3 0 -13 69 -82 82 -82 5 0 7 -4 3 -9 -3 -5 3 -13 12
-16 10 -4 43 -35 73 -70 30 -35 61 -64 68 -64 7 -1 11 -5 7 -10 -3 -5 3 -12
12 -16 10 -3 34 -25 53 -49 19 -23 50 -54 67 -67 18 -13 35 -32 39 -42 3 -9
10 -15 15 -12 5 4 9 2 9 -3 0 -13 69 -82 82 -82 5 0 6 -5 3 -10 -3 -6 1 -10
10 -10 9 0 13 -4 10 -10 -3 -5 0 -10 7 -10 7 0 22 -14 33 -30 11 -17 28 -33
38 -36 9 -3 17 -11 17 -19 0 -8 9 -17 20 -20 11 -3 20 -10 20 -15 0 -13 48
-59 54 -52 3 3 6 -2 6 -12 0 -9 3 -15 8 -13 7 5 30 -15 35 -30 1 -5 5 -7 10
-6 4 2 7 -3 8 -10 0 -6 20 -28 44 -47 24 -19 47 -43 50 -53 4 -9 11 -15 16
-12 5 4 9 0 10 -7 0 -7 21 -31 47 -52 26 -22 46 -41 45 -43 -2 -1 -2 -2 0 0 6
5 35 -28 30 -35 -2 -5 4 -8 13 -8 10 0 15 -3 12 -6 -8 -7 40 -54 54 -54 6 0 9
-3 6 -6 -4 -3 12 -22 35 -42 23 -20 43 -40 45 -44 4 -9 62 -69 62 -64 0 4 82
-79 124 -127 14 -15 28 -27 31 -27 12 0 34 -28 27 -34 -3 -4 4 -9 16 -13 12
-3 19 -9 16 -14 -3 -5 2 -9 11 -9 9 0 13 -4 10 -10 -3 -5 0 -10 7 -10 7 0 22
-14 33 -30 11 -17 28 -33 38 -36 9 -3 17 -11 18 -17 0 -7 20 -28 44 -47 24
-19 47 -43 50 -53 4 -9 11 -15 16 -12 5 4 9 2 9 -3 0 -13 69 -82 82 -82 5 0 6
-4 3 -10 -3 -5 1 -10 10 -10 9 0 13 -4 10 -10 -3 -5 0 -10 7 -10 7 0 22 -14
33 -30 11 -17 28 -33 38 -36 9 -3 17 -11 17 -19 0 -8 9 -17 20 -20 11 -3 20
-10 20 -15 0 -13 48 -59 54 -52 3 3 6 -2 6 -12 0 -9 3 -15 8 -13 4 3 18 -10
32 -29 14 -18 32 -36 41 -39 9 -3 22 -16 29 -30 7 -13 17 -22 22 -19 4 3 8 -1
8 -8 0 -7 10 -19 23 -27 12 -7 19 -10 15 -6 -8 9 14 35 25 28 4 -2 7 3 7 12 0
9 3 14 8 12 4 -3 21 13 37 34 17 21 36 38 43 39 7 0 10 4 7 10 -3 5 1 10 9 10
8 0 18 9 21 20 4 11 9 18 13 16 10 -5 32 20 25 28 -4 3 -2 6 3 6 5 0 24 14 42
30 18 17 31 30 28 30 -3 0 6 11 20 25 14 14 29 25 35 25 6 0 8 4 4 9 -3 5 3
12 12 15 10 3 27 19 38 35 11 17 21 28 24 26 2 -3 15 10 28 27 12 18 23 29 23
26 0 -3 19 13 43 36 23 22 42 43 40 46 -1 3 12 15 28 25 16 11 29 26 29 33 0
7 5 10 10 7 9 -6 14 8 11 28 -1 5 3 6 8 3 9 -6 61 41 61 56 0 5 3 7 8 5 4 -3
18 10 32 29 14 18 30 34 37 34 6 0 20 15 32 32 11 18 21 29 21 25 0 -4 6 -2
14 5 8 7 12 16 9 20 -2 5 0 8 4 8 5 0 23 13 41 30 18 16 31 30 28 30 -3 0 6
11 20 25 14 14 29 25 35 25 6 0 8 4 4 9 -3 5 3 12 12 15 10 3 27 19 38 35 11
17 21 28 24 26 2 -3 15 10 28 27 12 18 23 29 23 26 0 -3 19 13 43 36 23 22 42
43 40 46 -1 3 12 15 28 25 16 11 29 26 29 33 0 7 5 10 10 7 9 -6 14 8 11 27 0
5 2 7 7 6 12 -2 42 14 42 23 0 13 37 48 44 41 3 -3 6 3 6 13 0 10 3 15 7 12 3
-4 17 8 30 25 12 18 23 29 23 25 0 -4 6 -2 14 5 8 7 12 16 10 19 -1 3 10 13
27 23 16 9 29 23 29 29 0 7 14 21 30 32 16 11 30 26 30 33 0 7 5 10 10 7 6 -3
10 0 10 8 0 7 11 19 24 26 13 7 29 24 36 37 7 13 16 21 20 19 4 -2 13 7 20 20
7 13 17 22 22 19 5 -3 12 3 15 15 3 11 9 18 14 15 5 -3 9 1 9 9 0 7 11 19 24
26 13 7 29 24 36 37 7 13 17 21 21 19 4 -3 11 4 14 16 4 11 9 18 12 15 4 -3
17 9 30 26 12 18 23 29 23 25 0 -4 6 -2 14 5 8 7 12 16 10 20 -2 4 5 9 16 13
11 3 20 13 20 21 0 8 5 12 10 9 6 -3 10 -2 10 4 0 12 59 71 71 71 6 0 7 5 4
10 -3 6 1 10 9 10 8 0 18 9 21 20 4 11 9 18 13 16 10 -5 32 20 25 28 -4 3 -2
6 3 6 5 0 24 14 42 30 18 17 31 30 28 30 -3 0 6 11 20 25 14 14 29 25 35 25 6
0 8 4 4 9 -3 5 3 12 12 15 10 3 27 19 38 35 11 17 21 28 24 26 2 -3 15 10 28
27 12 18 23 29 23 26 0 -3 19 13 43 36 23 22 42 43 40 46 -1 3 12 15 28 25 16
11 29 26 29 33 0 7 5 10 10 7 9 -6 14 8 11 28 -1 5 3 6 8 3 9 -6 61 41 61 56
0 5 4 7 9 3 5 -3 13 4 16 16 4 11 9 18 12 15 4 -3 17 9 30 26 12 18 23 29 23
25 0 -4 6 -2 14 5 8 7 12 16 10 19 -1 3 10 13 27 23 16 9 29 21 29 26 0 13 48
59 54 52 3 -3 6 2 6 12 0 9 3 16 8 14 4 -2 19 9 34 24 15 15 25 28 23 28 -2 0
6 10 18 23 12 13 24 22 27 21 3 -1 15 11 25 27 11 16 25 29 30 29 6 0 19 13
30 29 10 16 22 28 25 26 3 -1 11 3 18 11 7 8 10 14 6 14 -4 0 6 10 22 23 38
29 66 57 57 57 -4 0 7 11 25 23 17 13 30 26 28 28 -2 2 2 10 10 17 8 7 14 9
14 5 0 -4 11 8 25 27 14 19 25 30 25 25 0 -5 11 6 25 25 14 19 25 31 25 27 0
-4 6 -2 14 5 8 7 12 16 10 19 -1 3 10 13 27 23 16 9 29 21 29 26 0 13 48 59
54 52 3 -3 6 3 6 13 0 10 2 16 6 13 5 -6 61 43 59 52 -1 3 9 15 22 27 13 12
23 21 23 19 0 -2 16 11 35 30 19 18 35 37 35 42 0 5 11 14 24 21 13 7 29 24
36 37 7 13 17 21 21 19 4 -3 11 4 14 16 4 11 9 18 12 15 4 -3 17 9 30 26 12
18 23 29 23 25 0 -4 6 -2 14 5 8 7 12 16 10 20 -2 4 5 9 16 13 11 3 20 13 20
21 0 8 5 12 10 9 6 -3 10 -2 10 4 0 12 59 71 71 71 6 0 7 4 4 10 -3 5 1 10 9
10 8 0 18 9 21 21 4 11 9 18 12 15 7 -7 32 17 26 27 -2 4 0 7 4 7 5 0 23 13
41 30 18 17 31 30 28 30 -3 0 6 11 20 25 14 14 29 25 35 25 6 0 8 4 4 9 -3 5
3 12 12 15 10 3 27 19 38 35 11 17 21 28 24 26 2 -3 15 10 28 27 12 18 23 29
23 26 0 -3 19 13 43 36 23 22 42 43 40 46 -1 3 12 15 28 25 16 11 29 26 29 33
0 7 5 10 10 7 6 -3 10 0 10 8 0 7 11 19 24 26 13 7 30 24 37 37 7 13 14 22 17
19 6 -6 48 47 45 57 -2 5 0 7 5 7 19 -3 33 2 27 11 -3 6 1 10 9 10 8 0 18 9
21 21 4 11 9 18 12 15 7 -7 32 17 26 27 -2 4 0 7 4 7 5 0 26 16 46 35 20 19
34 35 30 35 -4 0 7 11 25 23 17 13 30 26 28 28 -2 2 2 10 10 17 8 7 14 9 14 5
0 -4 11 8 25 27 14 19 25 30 25 25 0 -5 11 6 25 25 14 19 25 31 25 27 0 -4 6
-2 14 5 8 7 12 15 11 18 -2 3 10 15 26 25 16 11 29 25 29 30 0 6 14 19 30 30
16 11 30 26 30 33 0 7 5 10 10 7 9 -6 14 8 11 28 -1 5 3 6 8 3 9 -6 61 41 61
56 0 5 4 7 9 3 5 -3 13 4 16 16 4 11 9 18 12 15 4 -3 17 9 30 26 12 18 23 29
23 25 0 -4 6 -2 14 5 8 7 12 16 10 19 -1 3 10 13 27 23 16 9 29 21 29 26 0 13
48 59 54 52 3 -3 6 2 6 12 0 9 3 16 8 14 4 -2 19 9 34 24 15 15 25 28 23 28
-2 0 6 10 18 23 12 13 24 22 27 21 3 -1 15 11 25 27 11 16 26 29 33 29 7 0 10
4 7 10 -3 6 1 10 9 10 8 0 18 9 21 20 4 11 9 18 13 16 4 -2 13 2 20 10 7 8 10
14 6 14 -4 0 6 10 22 22 38 30 66 58 57 58 -4 0 7 11 25 23 17 13 30 26 28 28
-2 2 2 10 10 17 8 7 14 9 14 5 0 -4 11 8 25 27 14 19 25 30 25 25 0 -5 11 6
25 25 14 19 25 31 25 27 0 -4 6 -2 14 5 8 7 12 16 10 19 -1 3 10 13 27 23 16
9 29 23 29 29 0 7 14 21 30 32 16 11 30 26 30 33 0 7 5 10 10 7 6 -3 10 0 10
8 0 7 11 19 24 26 13 7 30 24 37 37 7 13 15 22 17 19 3 -3 14 7 24 22 10 16
18 25 18 21 0 -5 9 1 20 12 11 11 20 24 20 28 0 5 11 14 24 21 13 7 29 24 36
37 7 13 17 21 21 19 4 -3 11 4 14 16 4 11 9 18 12 15 4 -3 17 9 30 26 12 18
23 29 23 25 0 -4 6 -2 14 5 8 7 12 15 11 18 -2 3 10 15 26 25 16 11 29 24 29
29 0 4 11 17 25 28 14 11 23 24 19 29 -3 5 -2 9 3 8 20 -3 34 2 28 11 -3 6 1
10 9 10 8 0 18 9 21 20 4 11 9 18 13 16 10 -5 32 20 25 28 -4 3 -2 6 3 6 6 0
27 16 47 35 20 19 34 35 30 35 -4 0 7 11 25 23 17 13 30 26 28 28 -2 2 2 10
10 17 8 7 14 9 14 5 0 -4 11 8 25 27 14 19 25 30 25 25 0 -5 11 6 25 25 14 19
25 30 25 25 0 -5 11 6 25 25 14 19 25 31 25 28 0 -4 26 19 58 50 32 31 56 60
54 65 -2 4 1 7 6 7 13 0 172 160 172 173 0 6 3 8 6 5 6 -7 84 72 84 85 0 4 5
5 10 2 6 -3 10 -2 10 3 0 4 42 52 94 105 52 53 93 97 91 97 -1 0 37 41 85 90
48 50 86 90 84 90 -1 0 18 22 44 49 26 28 70 76 97 107 80 92 118 134 152 169
17 19 28 36 25 39 -3 3 0 6 6 6 7 0 12 7 12 16 0 8 4 13 10 9 5 -3 16 7 24 22
8 15 23 34 35 42 11 8 18 18 15 23 -3 4 -1 8 5 8 6 0 17 12 25 28 8 15 18 26
23 25 4 -2 8 1 8 6 0 5 12 20 27 34 15 14 24 28 21 31 -4 3 1 6 11 6 9 0 15 4
12 9 -4 5 10 27 30 49 20 22 34 42 32 44 -1 3 11 18 28 34 18 16 35 39 39 52
3 12 10 20 15 17 5 -3 11 4 15 15 3 11 11 20 16 20 5 0 9 5 9 10 0 6 8 18 18
28 9 10 24 29 32 42 8 13 23 32 33 42 9 10 15 18 12 18 -3 0 4 10 15 23 12 12
30 37 41 55 12 17 26 32 31 32 6 0 9 3 5 6 -3 4 5 21 18 39 14 17 22 35 17 40
-4 5 -1 5 5 1 8 -5 19 5 30 28 9 20 21 36 25 36 5 0 6 5 3 10 -3 6 -2 10 4 10
6 0 22 21 37 48 32 54 60 92 65 89 2 -1 3 0 2 2 -4 8 28 61 37 61 5 0 6 7 3
17 -4 10 -2 14 4 10 6 -4 14 4 17 18 4 14 11 25 16 25 6 0 10 7 10 15 0 8 4
15 8 15 5 0 14 16 22 35 7 19 20 37 27 40 8 2 12 9 9 14 -3 5 0 11 8 14 8 3
17 19 21 36 4 17 11 31 16 31 5 0 9 7 9 15 0 9 6 18 14 21 8 3 13 11 10 18 -3
7 2 19 11 26 8 7 15 19 15 26 0 8 5 14 11 14 5 0 8 4 5 9 -4 5 -2 11 3 13 5 1
11 10 13 18 2 8 11 22 20 31 10 9 15 19 11 22 -3 4 1 15 9 24 17 20 32 54 30
66 -1 4 2 7 7 7 5 0 19 24 31 54 12 30 28 57 36 60 9 3 13 10 10 15 -9 14 15
61 28 54 6 -3 8 -3 4 1 -9 10 11 66 24 66 5 0 7 4 3 9 -3 5 6 31 20 56 13 26
22 51 19 56 -3 5 2 9 10 9 10 0 13 6 9 17 -4 9 -2 14 3 10 5 -3 10 2 11 11 1
19 25 84 33 92 3 3 12 25 20 50 8 25 20 54 27 66 7 11 10 24 6 27 -3 4 -1 7 6
7 7 0 10 4 7 9 -3 5 5 29 18 54 12 26 18 43 13 40 -6 -4 -7 -1 -1 8 5 8 9 19
9 24 1 6 5 9 11 8 6 -1 9 12 8 28 -1 16 1 29 5 29 4 0 8 7 9 15 1 8 3 22 4 30
1 8 5 15 9 15 5 0 6 7 3 15 -4 8 -1 15 6 15 7 0 10 6 7 14 -3 7 0 19 6 25 6 6
8 11 4 11 -4 0 -1 13 8 30 8 16 15 32 15 35 0 3 0 6 1 8 0 1 3 13 6 27 6 33
11 54 13 60 1 3 2 8 1 13 0 4 3 7 7 7 4 0 8 8 9 18 2 43 8 72 14 72 3 0 10 24
14 53 8 52 11 65 15 70 3 4 11 41 13 62 2 11 6 26 11 33 4 7 6 15 3 18 -2 2 2
30 9 61 7 31 11 60 8 65 -3 4 -1 8 4 8 5 0 8 15 7 33 -2 17 2 38 7 44 6 7 8
24 6 38 -3 14 -1 25 4 25 5 0 7 4 4 9 -4 5 0 12 6 14 10 4 10 6 0 6 -7 1 -11
5 -7 11 6 10 17 96 19 148 0 17 3 32 6 32 3 0 6 19 6 43 3 96 8 137 18 137 8
0 7 3 0 8 -12 8 -15 42 -4 42 4 0 7 7 7 15 0 8 -3 15 -7 15 -4 0 -7 7 -7 15 0
8 3 15 6 15 6 0 7 336 2 355 -2 6 -2 15 -1 20 7 28 4 81 -5 87 -6 5 -5 8 3 8
8 0 10 5 5 12 -12 21 -13 69 -1 62 7 -5 8 -2 2 7 -4 8 -9 27 -11 44 -1 16 -4
57 -8 90 -3 33 -7 83 -9 110 -3 28 -5 51 -6 53 -2 1 -3 19 -4 40 -1 20 -4 42
-7 47 -4 6 -7 26 -8 45 -1 19 -3 45 -4 58 0 12 -5 22 -10 22 -5 0 -7 6 -4 13
3 8 -1 47 -9 88 -7 41 -16 85 -18 99 -3 14 -5 25 -6 25 -2 0 -12 65 -13 83 0
6 -3 12 -6 12 -6 0 -12 36 -15 88 0 12 -4 22 -8 22 -5 0 -8 11 -8 25 0 14 -4
25 -10 25 -5 0 -10 5 -10 11 0 5 6 7 13 3 10 -6 10 -4 0 7 -7 7 -13 23 -13 35
0 13 -4 25 -10 29 -5 3 -7 12 -3 20 3 8 0 15 -6 15 -6 0 -8 7 -5 15 4 8 1 21
-5 29 -7 8 -11 18 -9 22 1 5 -3 19 -10 30 -6 12 -9 24 -7 26 3 3 -2 22 -10 42
-9 20 -13 41 -10 46 4 6 1 10 -5 10 -6 0 -9 4 -6 9 4 5 2 11 -4 13 -5 1 -10
18 -12 36 -1 18 -7 31 -13 29 -5 -3 -11 5 -11 17 -2 32 -11 64 -28 98 -9 17
-13 34 -10 39 3 5 0 9 -5 9 -6 0 -11 9 -11 20 0 11 -4 20 -10 20 -5 0 -7 7 -4
15 4 8 1 15 -7 15 -7 0 -10 3 -6 6 5 5 -37 115 -53 139 -4 6 -6 18 -5 28 2 9
-1 15 -6 11 -8 -5 -13 9 -10 29 0 4 -4 7 -9 7 -6 0 -10 5 -10 11 0 16 -31 81
-49 103 -12 15 -13 17 -2 11 9 -5 6 5 -7 22 -12 17 -24 41 -26 54 -2 13 -9 23
-16 21 -6 -1 -9 2 -6 7 4 5 2 12 -4 16 -5 3 -10 15 -10 26 0 10 -4 19 -10 19
-5 0 -12 11 -16 25 -3 13 -12 29 -20 36 -8 6 -14 20 -14 30 0 11 -4 19 -10 19
-5 0 -10 9 -10 21 0 11 -5 17 -10 14 -5 -3 -10 2 -10 12 0 10 -9 29 -20 43
-11 14 -20 31 -20 38 0 6 -4 12 -10 12 -5 0 -10 6 -10 14 0 8 -5 16 -10 18 -6
2 -12 13 -13 25 0 12 -4 20 -8 17 -7 -4 -18 15 -15 27 0 3 -6 13 -14 22 -24
27 -34 40 -49 70 -8 15 -18 27 -23 27 -5 0 -6 5 -3 10 3 6 1 10 -6 10 -7 0
-10 3 -6 6 3 3 -5 18 -19 32 -13 15 -24 32 -24 39 0 7 -6 16 -14 20 -7 4 -21
23 -30 41 -9 17 -21 32 -27 32 -6 0 -8 4 -5 8 3 5 -3 15 -12 24 -9 8 -24 25
-32 38 -8 13 -23 32 -33 42 -9 10 -18 23 -20 29 -3 17 -41 56 -49 52 -5 -2 -8
2 -8 10 0 8 -13 29 -29 46 -17 18 -30 34 -30 36 -1 3 -1 10 -1 15 0 6 -7 10
-16 10 -8 0 -13 4 -9 9 3 5 -4 12 -15 16 -11 3 -20 11 -20 16 0 6 -13 24 -30
42 -16 18 -30 38 -30 45 0 7 -4 11 -9 7 -6 -3 -21 10 -34 30 -13 19 -27 32
-30 28 -4 -3 -7 1 -7 10 0 10 -8 17 -17 17 -9 0 -14 3 -10 6 3 4 -48 59 -113
124 -65 65 -116 121 -112 125 4 5 1 5 -6 1 -7 -4 -15 -1 -18 8 -3 9 -13 16
-21 16 -8 0 -11 5 -8 10 3 6 2 10 -2 10 -5 0 -26 16 -47 35 -21 19 -42 32 -47
29 -5 -3 -6 2 -3 10 3 9 1 16 -5 16 -5 0 -19 10 -31 22 -11 12 -20 18 -20 12
-1 -5 -7 2 -15 16 -8 14 -14 21 -15 17 0 -5 -17 8 -37 27 -21 20 -44 36 -51
36 -7 0 -10 5 -7 10 3 6 -1 10 -9 10 -8 0 -20 9 -26 20 -6 11 -15 20 -21 20
-11 0 -27 12 -70 51 -15 15 -30 25 -32 23 -2 -2 -16 7 -31 21 -15 14 -31 25
-37 25 -5 0 -9 5 -9 10 0 6 -5 10 -10 10 -6 0 -20 9 -32 20 -12 10 -25 17 -30
14 -4 -3 -8 -1 -8 4 0 12 -101 78 -112 74 -5 -1 -8 2 -8 8 0 5 -21 22 -47 37
-27 15 -50 30 -53 33 -5 5 -25 17 -75 44 -11 6 -22 13 -25 16 -15 15 -68 39
-74 33 -3 -3 -6 2 -6 11 0 12 -5 16 -15 12 -8 -3 -15 -1 -15 5 0 6 -7 8 -16 5
-8 -3 -12 -2 -9 4 6 9 -31 29 -47 26 -4 0 -14 8 -23 19 -9 11 -13 13 -9 5 5
-8 -4 -5 -20 8 -16 12 -35 22 -42 22 -8 0 -14 5 -14 11 0 6 -6 9 -12 7 -7 -3
-21 4 -32 13 -10 10 -23 16 -27 13 -5 -3 -18 4 -30 15 -12 11 -25 18 -30 16
-4 -3 -14 2 -23 10 -8 8 -19 15 -23 14 -20 -3 -34 2 -28 11 5 9 -16 14 -52 13
-7 -1 -10 3 -7 8 5 8 -9 13 -28 10 -5 0 -8 4 -8 11 0 6 -3 9 -6 5 -4 -3 -27 5
-51 19 -24 13 -41 19 -37 12 4 -7 -2 -5 -13 5 -11 9 -23 14 -26 10 -4 -3 -7
-1 -7 5 0 6 -7 9 -15 6 -8 -4 -15 -1 -15 6 0 6 -4 8 -10 5 -5 -3 -10 -1 -10 4
0 6 -3 10 -7 10 -28 -5 -53 2 -47 13 4 6 3 8 -3 5 -5 -3 -22 1 -37 9 -16 7
-36 14 -46 14 -10 0 -25 6 -32 13 -7 8 -18 12 -25 10 -6 -2 -25 3 -42 12 -17
8 -31 12 -31 8 0 -4 -5 -2 -12 5 -7 7 -22 12 -35 12 -13 0 -23 5 -23 12 0 6
-3 9 -6 5 -3 -3 -27 1 -52 9 -26 9 -57 17 -68 19 -12 2 -31 8 -44 15 -12 6
-24 9 -27 6 -4 -3 -12 -1 -19 5 -8 6 -20 9 -29 6 -8 -4 -17 -1 -21 4 -3 6 -18
8 -33 5 -19 -5 -22 -4 -11 4 16 10 12 12 -32 12 -16 1 -28 4 -28 7 0 4 -14 8
-32 9 -18 2 -45 9 -60 17 -16 7 -25 9 -22 3 4 -7 -2 -8 -17 -2 -13 4 -30 7
-36 7 -7 0 -13 5 -13 10 0 5 -8 3 -17 -4 -9 -8 -14 -9 -10 -3 4 7 -5 11 -25
12 -17 0 -34 5 -37 10 -3 4 -21 8 -38 7 -18 0 -33 4 -33 10 0 5 -4 4 -9 -4 -5
-8 -11 -9 -15 -3 -4 6 -15 9 -26 7 -11 -2 -20 0 -20 4 0 7 -18 9 -112 14 -10
1 -18 5 -18 10 0 5 -7 4 -15 -3 -11 -9 -15 -10 -15 -1 0 8 -8 10 -20 6 -11 -3
-20 -3 -20 2 0 4 -28 9 -63 10 -68 2 -86 5 -104 16 -6 4 -15 2 -19 -4 -4 -8
-9 -7 -15 2 -7 11 -9 11 -9 1 0 -9 -6 -10 -17 -4 -10 4 -53 8 -95 7 -43 0 -78
3 -78 6 0 6 -27 5 -55 -1 -5 -1 -12 -1 -15 0 -18 8 -257 4 -269 -4 -11 -8 -13
-8 -8 0 4 7 -18 10 -68 10 -40 -1 -71 -4 -68 -8 2 -5 0 -8 -6 -8 -5 0 -11 5
-13 11 -3 9 -10 8 -28 -1 -18 -9 -25 -10 -28 -1 -2 6 -9 8 -14 4 -6 -3 -47 -7
-90 -8 -43 -1 -81 -5 -85 -8 -3 -4 -12 -2 -20 4 -7 7 -13 7 -13 2 0 -6 -15 -9
-32 -8 -18 1 -39 -3 -45 -8 -9 -6 -13 -6 -13 2 0 8 -6 9 -17 3 -10 -4 -31 -8
-48 -8 -16 1 -33 -3 -37 -9 -5 -6 -8 -5 -8 3 0 8 -5 10 -12 5 -7 -4 -31 -9
-53 -10 -39 -3 -85 -8 -136 -16 -14 -2 -32 -8 -39 -12 -9 -6 -11 -4 -5 5 5 9
4 11 -3 6 -13 -8 -61 -16 -105 -19 -15 -1 -32 -9 -37 -17 -5 -8 -10 -10 -10
-4 0 7 -7 14 -15 18 -8 3 -14 1 -12 -5 2 -10 -28 -16 -105 -22 -16 -1 -28 -5
-28 -9 0 -4 -8 -7 -17 -6 -10 0 -29 -3 -43 -7 -14 -4 -39 -7 -57 -8 -17 -1
-29 -6 -26 -11 4 -5 -3 -7 -15 -4 -12 4 -24 3 -27 -2 -4 -6 -47 -17 -97 -24
-3 -1 -10 -4 -14 -8 -4 -5 -18 -8 -30 -8 -13 0 -25 -4 -28 -9 -3 -5 -15 -7
-26 -4 -11 3 -20 1 -20 -4 0 -8 -15 -12 -57 -15 -7 -1 -13 -5 -13 -9 0 -4 -8
-6 -17 -5 -10 2 -25 -1 -33 -5 -24 -12 -54 -22 -62 -21 -5 1 -8 -3 -8 -9 0 -5
-4 -8 -9 -5 -5 3 -26 -2 -47 -11 -22 -9 -42 -16 -46 -15 -4 1 -22 -5 -40 -12
-18 -8 -35 -14 -38 -13 -3 0 -16 -6 -30 -13 -14 -8 -28 -15 -32 -16 -5 -1 -11
-3 -15 -4 -5 -1 -11 -2 -15 -1 -5 0 -8 -4 -8 -11 0 -6 -3 -8 -6 -5 -4 3 -16 1
-28 -5 -11 -7 -23 -13 -26 -13 -3 -1 -22 -9 -44 -18 -21 -9 -42 -17 -47 -17
-5 0 -9 -5 -9 -10 0 -6 -3 -9 -7 -8 -17 3 -63 -15 -63 -25 0 -6 -3 -7 -6 -4
-4 4 -19 -2 -33 -12 -14 -10 -32 -16 -38 -14 -7 3 -13 0 -13 -6 0 -6 -7 -11
-17 -11 -9 0 -32 -12 -51 -27 -20 -15 -32 -20 -27 -12 6 10 3 9 -11 -2 -23
-20 -84 -52 -84 -44 0 2 -8 -2 -17 -10 -10 -8 -22 -15 -26 -15 -4 1 -14 -5
-22 -12 -33 -30 -41 -34 -53 -30 -6 2 -15 -3 -18 -12 -3 -9 -10 -14 -14 -11
-4 2 -20 -6 -36 -20 -15 -13 -31 -22 -36 -19 -4 3 -8 1 -8 -5 0 -5 -10 -13
-22 -17 -13 -4 -28 -14 -35 -23 -7 -9 -13 -11 -13 -6 0 6 -4 5 -8 -2 -4 -6
-14 -13 -21 -15 -14 -3 -31 -14 -73 -50 -11 -10 -24 -15 -28 -13 -4 3 -11 -2
-14 -11 -4 -9 -9 -14 -13 -10 -3 3 -13 -3 -20 -14 -8 -11 -18 -18 -22 -15 -5
2 -19 -7 -31 -20 -13 -14 -29 -25 -37 -25 -7 0 -13 -5 -13 -10 0 -6 -11 -15
-25 -20 -14 -5 -25 -14 -25 -19 0 -6 -8 -8 -17 -4 -10 3 -15 2 -11 -2 5 -5 -6
-16 -22 -26 -17 -11 -30 -24 -30 -29 0 -6 -4 -9 -8 -6 -5 3 -23 -8 -40 -24
-18 -16 -32 -26 -32 -22 0 4 -5 -1 -11 -10 -5 -10 -17 -18 -24 -18 -8 0 -15
-4 -15 -8 0 -4 -25 -25 -55 -47 -30 -22 -55 -44 -55 -48 0 -5 -4 -6 -9 -2 -5
3 -12 -4 -16 -15 -4 -11 -11 -18 -16 -15 -5 4 -9 1 -9 -4 0 -6 -7 -11 -16 -11
-8 0 -12 -4 -9 -10 3 -5 2 -10 -3 -10 -5 0 -20 -9 -33 -21 -13 -11 -34 -29
-47 -40 -12 -10 -26 -19 -32 -19 -5 0 -7 -7 -4 -15 4 -11 2 -13 -9 -9 -8 3
-21 -3 -28 -13 -8 -11 -24 -26 -35 -34 -12 -7 -22 -17 -23 -21 0 -5 -4 -9 -8
-10 -5 -1 -23 -17 -40 -36 -18 -19 -33 -31 -33 -26 0 5 -5 1 -11 -9 -6 -9 -15
-15 -20 -11 -5 3 -9 2 -8 -3 3 -18 -1 -34 -9 -29 -4 2 -23 -11 -41 -30 -19
-19 -38 -34 -43 -34 -5 0 -6 -4 -3 -10 3 -5 2 -10 -2 -10 -13 0 -73 -58 -73
-70 0 -6 -4 -8 -10 -5 -5 3 -10 1 -10 -5 0 -6 -4 -9 -9 -5 -5 3 -12 -4 -16
-15 -3 -11 -11 -20 -16 -20 -6 0 -7 -5 -4 -10 4 -6 3 -10 -2 -9 -20 4 -34 -2
-28 -12 4 -6 -2 -13 -13 -16 -11 -2 -23 -14 -25 -25 -3 -11 -10 -17 -16 -13
-6 3 -11 -1 -11 -9 0 -9 -7 -16 -15 -16 -8 0 -15 -4 -15 -10 0 -22 -22 -4
-153 123 -150 146 -242 230 -257 235 -6 2 -10 10 -10 18 0 8 -5 14 -11 14 -6
0 -25 14 -42 32 -17 17 -44 39 -60 48 -16 10 -27 20 -25 22 2 2 -5 12 -14 22
-10 10 -18 14 -18 9 0 -4 -5 0 -11 10 -5 9 -17 17 -25 17 -8 0 -12 5 -9 10 3
6 2 10 -3 10 -5 0 -23 14 -40 30 -18 17 -36 30 -42 30 -5 0 -14 9 -20 20 -6
11 -16 20 -22 20 -6 0 -19 10 -29 22 -11 11 -19 19 -19 16 0 -4 -14 7 -31 23
-17 16 -36 26 -42 22 -6 -3 -7 -1 -3 5 4 7 -3 17 -18 24 -14 6 -26 15 -26 20
0 4 -7 8 -16 8 -8 0 -12 5 -9 10 3 6 0 10 -7 10 -8 0 -28 14 -46 30 -18 17
-37 30 -41 30 -5 0 -20 11 -35 25 -15 14 -31 25 -36 25 -5 0 -13 6 -17 13 -4
6 -20 18 -35 26 -15 8 -37 23 -48 33 -11 10 -20 15 -20 11 0 -4 -6 -1 -13 7
-15 18 -45 38 -69 46 -9 3 -19 12 -22 20 -3 8 -12 14 -19 14 -8 0 -20 7 -27
15 -7 9 -15 13 -18 10 -3 -2 -13 5 -23 16 -9 11 -21 21 -26 21 -15 1 -53 21
-53 28 0 3 -16 12 -35 20 -19 8 -35 17 -35 22 0 4 -7 8 -15 8 -8 0 -15 5 -15
11 0 5 -4 8 -9 4 -5 -3 -16 2 -24 10 -9 8 -20 15 -26 15 -6 0 -11 5 -11 10 0
6 -9 10 -20 10 -11 0 -20 5 -20 11 0 5 -4 7 -10 4 -5 -3 -10 -1 -10 5 0 6 -4
9 -9 6 -5 -4 -11 -3 -13 1 -5 11 -87 53 -105 53 -8 0 -11 5 -8 10 3 6 1 10 -5
10 -6 0 -30 9 -52 20 -23 11 -48 20 -55 20 -8 0 -11 5 -8 10 3 6 -2 10 -13 10
-10 0 -22 3 -26 8 -4 4 -11 7 -15 7 -16 0 -91 39 -91 47 0 5 -5 6 -10 3 -6 -4
-16 -2 -23 3 -7 6 -14 10 -17 10 -14 -2 -50 15 -50 23 0 6 -4 8 -10 4 -9 -5
-18 -2 -69 24 -19 10 -22 10 -15 -1 4 -7 -2 -5 -13 5 -11 9 -23 14 -26 10 -4
-3 -7 -1 -7 6 0 7 -4 9 -10 6 -5 -3 -10 -1 -10 5 0 7 -8 9 -20 5 -11 -4 -20
-2 -20 4 0 6 -8 11 -18 11 -10 0 -24 6 -31 13 -11 10 -12 9 -6 -3 6 -11 2 -10
-12 3 -11 10 -24 17 -29 16 -5 -1 -16 1 -24 4 -29 12 -135 40 -136 36 0 -2 -7
1 -15 7 -8 6 -22 10 -31 9 -10 -2 -18 1 -18 6 0 5 -13 9 -28 9 -16 0 -32 3
-36 7 -7 7 -19 10 -66 17 -14 2 -24 9 -22 15 2 9 -3 9 -18 1 -12 -6 -20 -7
-20 -1 0 5 -8 8 -17 6 -10 -1 -23 2 -30 7 -7 5 -17 7 -22 4 -5 -4 -12 -2 -16
4 -4 6 -11 8 -16 5 -5 -4 -14 -3 -21 1 -7 4 -24 9 -38 11 -43 5 -55 8 -69 17
-11 7 -12 6 -6 -5 7 -11 6 -12 -6 -3 -8 6 -21 12 -29 12 -8 0 -31 3 -50 7 -19
4 -43 6 -52 6 -10 0 -18 6 -18 12 0 7 -4 6 -10 -3 -5 -8 -10 -10 -10 -4 0 7
-12 10 -30 8 -16 -2 -32 1 -35 7 -5 7 -12 6 -21 -2 -10 -8 -14 -8 -14 0 0 6
-13 11 -28 11 -15 0 -34 6 -41 13 -11 10 -12 9 -6 -2 6 -11 2 -12 -21 -6 -16
5 -58 10 -94 11 -36 2 -66 4 -67 5 -2 1 -15 2 -30 3 -16 1 -32 4 -38 7 -5 3
-34 5 -62 5 -29 -1 -53 4 -53 9 0 6 -5 3 -10 -5 -5 -8 -10 -10 -10 -5 0 6 -33
10 -80 9 -44 0 -80 4 -80 8 0 5 -9 4 -20 -2 -14 -8 -20 -8 -20 0 0 8 -6 8 -20
0 -14 -7 -20 -7 -20 0 0 5 -5 10 -11 10 -5 0 -7 -6 -3 -12 5 -8 0 -7 -11 2
-10 8 -21 13 -24 12 -29 -17 -42 -23 -38 -15 4 5 -7 10 -23 10 -17 0 -27 -5
-23 -10 4 -6 1 -7 -8 -1 -19 12 -220 13 -212 1 4 -6 1 -7 -8 -2 -21 14 -62 15
-77 3 -10 -9 -16 -8 -22 2 -7 11 -11 11 -24 1 -12 -11 -16 -11 -16 -1 0 10 -4
10 -16 -1 -13 -10 -17 -10 -24 0 -4 8 -10 9 -13 4z"/>
</g>
</svg>
